
<svg xmlns="http://www.w3.org/2000/svg" width="24" height="24" viewBox="0 0 196 196">
<path fill="#fff" d="M98,23.9c-42,0-76,34-76,76c0,33.6,21.8,62.1,52,72.1c3.8,0.7,5.2-1.6,5.2-3.7c0-1.8-0.1-6.6-0.1-12.9
	c-21.1,4.6-25.6-10.2-25.6-10.2c-3.5-8.8-8.4-11.1-8.4-11.1c-6.9-4.7,0.5-4.6,0.5-4.6c7.6,0.5,11.6,7.8,11.6,7.8
	c6.8,11.6,17.8,8.3,22.1,6.3c0.7-4.9,2.7-8.3,4.8-10.2c-16.9-1.9-34.6-8.4-34.6-37.6c0-8.3,3-15.1,7.8-20.4
	c-0.8-1.9-3.4-9.6,0.7-20.1c0,0,6.4-2,20.9,7.8c6.1-1.7,12.6-2.5,19-2.6c6.5,0,13,0.9,19,2.6c14.5-9.8,20.9-7.8,20.9-7.8
	c4.1,10.5,1.5,18.2,0.8,20.1c4.9,5.3,7.8,12.1,7.8,20.4c0,29.2-17.8,35.6-34.7,37.5c2.7,2.3,5.2,7,5.2,14.1
	c0,10.2-0.1,18.4-0.1,20.8c0,2,1.4,4.4,5.2,3.7c30.2-10.1,51.9-38.5,51.9-72.1C174,57.9,140,23.9,98,23.9z"/>
</svg>
