<?xml version="1.0" standalone="no"?>
<!DOCTYPE svg PUBLIC "-//W3C//DTD SVG 20010904//EN"
 "http://www.w3.org/TR/2001/REC-SVG-20010904/DTD/svg10.dtd">
<svg version="1.0" xmlns="http://www.w3.org/2000/svg"
 width="120.000000pt" height="120.000000pt" viewBox="0 0 120.000000 120.000000"
 preserveAspectRatio="xMidYMid meet">
<metadata>
Created by potrace 1.11, written by Peter Selinger 2001-2013
</metadata>
<g transform="translate(0.000000,120.000000) scale(0.100000,-0.100000)"
fill="#000000" stroke="none">
<path d="M546 1119 c2 -4 -2 -9 -8 -12 -10 -4 -10 -7 0 -18 11 -12 14 -12 21
0 5 8 16 11 25 8 8 -3 18 -2 21 3 4 6 11 10 16 10 6 0 7 -5 4 -10 -7 -11 23
-9 41 3 7 4 17 0 24 -8 7 -8 16 -13 20 -10 5 3 11 1 15 -4 3 -6 12 -8 19 -5 7
3 19 -2 26 -11 10 -12 16 -13 26 -4 11 9 14 7 14 -9 0 -17 5 -20 30 -17 17 2
30 -1 30 -6 0 -6 -6 -7 -12 -3 -17 10 19 -32 57 -67 24 -22 27 -30 18 -40 -10
-10 -10 -16 0 -28 9 -12 9 -13 0 -7 -8 4 -13 2 -13 -4 0 -6 -5 -8 -12 -3 -19
11 -39 13 -32 2 3 -5 10 -7 15 -3 5 3 8 2 7 -3 -1 -4 3 -19 10 -33 l13 -25
-17 23 c-9 12 -22 22 -29 22 -6 0 -11 -10 -10 -22 2 -13 7 -22 13 -21 14 3 35
-34 27 -47 -4 -6 -15 -1 -25 12 l-19 23 -1 -30 c-2 -42 -16 -75 -24 -55 -3 8
-5 22 -4 30 3 43 -3 90 -13 90 -6 0 -9 -7 -6 -15 5 -11 1 -12 -17 -5 -30 11
-37 4 -25 -27 5 -13 9 -41 8 -61 0 -33 -1 -34 -10 -14 -5 13 -13 21 -18 18
-10 -7 -24 22 -16 34 3 5 0 12 -6 16 -13 7 -8 -42 6 -78 4 -11 3 -18 -4 -18
-7 0 -20 19 -31 43 -17 38 -19 40 -19 15 -1 -39 -27 -36 -35 5 -4 17 -14 41
-23 52 -15 19 -15 19 -9 -7 3 -14 9 -34 13 -43 12 -32 -21 -11 -40 26 -10 19
-16 26 -12 15 6 -21 -14 -96 -27 -96 -4 0 -8 5 -8 10 0 6 -7 10 -15 10 -16 0
-17 6 -17 55 1 19 -1 23 -4 10 -11 -45 -27 -75 -41 -75 -10 0 -11 5 -5 18 5 9
5 31 1 47 l-7 30 -1 -31 c-1 -32 -25 -73 -36 -62 -4 4 -1 30 6 57 10 40 10 54
1 63 -9 9 -12 8 -12 -7 0 -10 -10 -29 -22 -42 -16 -17 -21 -34 -20 -68 1 -25
-1 -45 -5 -45 -41 1 -53 70 -23 130 17 34 19 44 8 51 -9 6 -17 0 -26 -16 -17
-33 -21 -31 -18 6 1 17 10 35 19 41 17 9 24 38 10 38 -4 0 -20 -12 -35 -27
-15 -15 -28 -22 -28 -15 0 17 39 49 68 57 29 7 72 44 72 62 0 7 -9 17 -20 23
-11 6 -19 18 -19 28 1 16 2 16 6 0 6 -26 50 -23 58 3 4 11 13 18 20 15 7 -2
16 2 19 10 3 8 12 14 20 14 8 0 18 5 21 10 9 15 -54 8 -67 -7 -7 -9 -16 -10
-28 -3 -9 5 -20 6 -24 2 -4 -3 -11 0 -16 8 -8 13 -10 12 -10 -3 0 -10 -6 -24
-12 -31 -10 -11 -19 -7 -45 20 -57 59 -83 41 -83 -57 0 -37 4 -79 9 -92 7 -18
5 -31 -7 -48 -13 -19 -17 -48 -18 -129 0 -58 -3 -111 -7 -117 -4 -7 -9 -108
-11 -225 -2 -121 -8 -225 -14 -240 -9 -22 -7 -30 13 -52 14 -15 27 -22 30 -16
4 6 11 8 16 5 5 -4 10 9 10 27 1 23 3 26 6 10 3 -14 12 -22 24 -22 16 0 18 5
13 28 -6 25 -5 25 8 9 13 -18 50 -20 75 -4 7 4 16 0 22 -10 9 -16 12 -16 21
-3 7 11 10 12 10 2 0 -9 7 -11 19 -7 13 4 24 0 31 -12 10 -16 11 -15 5 7 -3
14 -7 32 -9 40 -1 8 -8 41 -15 72 -16 66 -36 67 -26 2 5 -36 4 -43 -8 -38 -19
7 -41 59 -32 76 3 7 0 5 -9 -6 -14 -17 -15 -15 -27 25 l-13 44 -7 -50 c-7 -57
-10 -52 -14 20 -1 27 -8 51 -14 53 -6 2 -11 11 -11 20 0 13 -3 12 -15 -4 -13
-17 -14 -17 -15 -2 0 10 8 25 18 35 9 10 15 17 13 16 -14 -9 -30 22 -24 46 6
23 5 25 -10 12 -10 -7 -17 -19 -17 -27 0 -7 -5 -16 -11 -20 -9 -5 -10 1 -5 22
4 16 13 32 19 36 7 4 8 8 3 8 -4 0 -1 11 8 25 9 14 12 25 7 25 -6 0 -7 7 -4
17 4 10 2 14 -4 10 -13 -8 -8 42 6 56 10 10 90 -23 119 -50 19 -18 42 -16 42
2 0 14 3 14 24 0 19 -13 25 -13 30 -3 3 7 3 3 1 -9 -3 -12 -1 -24 5 -28 5 -3
10 -18 10 -33 0 -19 3 -23 11 -15 19 19 13 83 -9 103 -18 17 -21 17 -37 2 -10
-9 -15 -12 -11 -5 3 6 3 13 -1 16 -5 2 -2 2 5 1 6 -2 12 3 12 11 0 14 52 45
77 45 7 0 23 6 34 13 17 9 23 9 26 0 2 -7 10 -10 17 -7 7 3 19 -2 26 -11 7 -8
20 -15 30 -15 32 0 44 -26 27 -59 -13 -26 -13 -31 0 -44 9 -9 17 -42 20 -78 4
-55 2 -68 -16 -90 -18 -23 -26 -26 -53 -20 -18 4 -45 4 -60 0 -16 -4 -28 -3
-28 2 0 5 -7 9 -15 9 -9 0 -15 9 -15 22 0 16 -3 19 -11 11 -13 -13 8 -128 27
-148 8 -7 14 -24 15 -37 1 -23 1 -23 9 2 l7 25 12 -30 c23 -58 23 -60 0 -39
-21 18 -22 18 -16 1 4 -10 7 -29 7 -43 0 -16 4 -22 14 -18 9 3 21 -5 31 -23 9
-17 14 -20 11 -8 -3 11 -2 26 3 33 6 10 10 7 15 -12 8 -32 42 -35 51 -5 6 17
9 19 16 8 7 -12 9 -11 9 1 1 11 4 10 15 -4 12 -16 18 -17 27 -8 17 17 25 15
31 -8 3 -11 10 -20 15 -20 14 0 25 34 13 38 -6 2 -11 10 -11 18 0 12 4 12 20
2 16 -10 19 -19 15 -38 -4 -17 -3 -22 4 -15 5 6 11 26 14 45 l4 35 1 -37 c2
-31 5 -36 23 -35 18 1 18 3 5 13 -17 12 -23 29 -7 20 5 -4 7 4 4 16 -4 21 -3
21 7 5 6 -10 23 -23 38 -28 20 -8 28 -7 35 6 8 15 10 15 22 -1 11 -16 12 -14
9 17 -1 19 -7 48 -13 66 -5 17 -8 33 -6 35 2 2 6 65 9 140 5 110 4 145 -9 174
-11 27 -12 41 -4 56 8 15 8 32 -1 63 -7 24 -10 47 -7 52 3 5 -1 22 -9 38 -10
19 -13 42 -9 65 4 23 0 52 -11 81 -19 50 -20 65 -10 129 4 30 3 38 -3 25 -8
-19 -9 -18 -16 8 l-7 27 -34 -30 c-43 -37 -56 -39 -23 -3 l24 27 -29 -18 c-27
-17 -30 -17 -41 -3 -11 15 -13 15 -28 0 -15 -15 -17 -14 -28 10 -9 20 -15 24
-25 16 -7 -6 -19 -7 -26 -3 -19 12 -36 15 -110 17 -37 2 -65 0 -62 -4z m-262
-28 c3 -5 -3 -11 -14 -14 -20 -5 -26 3 -13 16 9 10 21 9 27 -2z m79 -122 c-6
-6 -15 -4 -23 6 -11 13 -10 14 4 9 9 -4 16 -3 15 2 -3 19 4 28 8 10 3 -10 1
-22 -4 -27z m457 -233 c0 -38 -3 -47 -12 -38 -17 17 -18 89 -1 89 9 0 13 -16
13 -51z m63 -18 c-9 -20 -10 -20 -10 10 0 22 4 29 10 23 7 -7 7 -18 0 -33z
m-474 -91 c0 -21 -1 -21 -9 -2 -12 28 -12 37 0 30 6 -3 10 -16 9 -28z m458
-30 c13 -21 21 -42 18 -47 -3 -5 -1 -11 4 -14 12 -8 7 30 -8 68 -13 32 -11 39
6 28 6 -4 14 -23 17 -43 7 -45 16 -69 26 -69 4 0 10 -11 12 -25 6 -31 0 -32
-12 -2 -7 18 -9 18 -9 4 -1 -12 -5 -16 -13 -11 -10 6 -10 5 0 -8 11 -14 34
-108 25 -108 -2 0 -8 10 -13 23 -6 15 -9 17 -9 6 -1 -9 -8 -20 -17 -23 -8 -3
-12 -2 -9 4 3 6 1 10 -4 10 -6 0 -11 -4 -11 -9 0 -16 -44 -17 -58 -1 -11 13
-11 12 -3 -7 7 -14 18 -21 31 -18 24 5 26 -12 5 -51 -8 -16 -15 -23 -15 -16 0
19 -26 -8 -33 -34 -3 -12 -5 -6 -6 14 0 18 4 42 9 53 12 21 -4 64 -20 54 -4
-3 -10 -2 -13 2 -2 5 -2 2 0 -5 5 -22 -7 -34 -23 -22 -22 19 -7 166 22 209 18
26 21 39 13 58 -6 16 -5 22 1 18 6 -3 10 -1 10 5 0 6 5 8 10 5 6 -3 10 -1 10
6 0 18 29 -9 57 -54z m-142 -7 c-3 -5 -12 -10 -18 -10 -7 0 -6 4 3 10 19 12
23 12 15 0z m53 -261 c-15 -12 -17 -18 -8 -21 11 -3 11 -13 2 -49 l-11 -44 6
44 c3 28 2 41 -5 37 -13 -8 -10 10 8 47 10 20 16 24 21 15 6 -8 1 -19 -13 -29z
m132 26 c0 -8 -4 -15 -10 -15 -5 0 -7 7 -4 15 4 8 8 15 10 15 2 0 4 -7 4 -15z
m-305 -27 c19 -8 31 -8 50 0 20 9 25 9 25 -3 0 -8 -15 -17 -36 -21 -29 -5 -40
-2 -57 15 -24 24 -20 26 18 9z m32 -120 c-3 -7 -5 -2 -5 12 0 14 2 19 5 13 2
-7 2 -19 0 -25z m-360 -50 c-3 -7 -5 -2 -5 12 0 14 2 19 5 13 2 -7 2 -19 0
-25z"/>
<path d="M865 429 c-4 -6 -5 -12 -2 -15 2 -3 7 2 10 11 7 17 1 20 -8 4z"/>
<path d="M880 965 c0 -4 8 -14 18 -23 10 -10 13 -14 6 -9 -7 4 -14 2 -17 -6
-4 -10 2 -14 16 -13 29 1 28 25 0 44 -13 8 -23 11 -23 7z"/>
<path d="M400 925 c-9 -11 -9 -15 -1 -15 9 0 9 -6 0 -22 -11 -21 -11 -22 5 -9
9 8 15 20 12 26 -2 7 1 18 7 24 8 8 8 11 0 11 -6 0 -16 -7 -23 -15z"/>
<path d="M827 919 c7 -7 15 -10 18 -7 3 3 -2 9 -12 12 -14 6 -15 5 -6 -5z"/>
<path d="M689 878 c-7 -25 -5 -36 6 -31 8 2 11 11 8 19 -5 12 -12 18 -14 12z"/>
<path d="M836 867 c3 -10 9 -15 12 -12 3 3 0 11 -7 18 -10 9 -11 8 -5 -6z"/>
<path d="M750 769 c0 -5 5 -7 10 -4 6 3 10 8 10 11 0 2 -4 4 -10 4 -5 0 -10
-5 -10 -11z"/>
<path d="M530 521 c0 -5 10 -13 23 -17 12 -3 30 -13 40 -22 21 -19 22 -4 1 26
-15 22 -64 31 -64 13z"/>
<path d="M667 512 c-24 -27 -21 -32 13 -19 17 6 30 17 30 24 0 19 -24 16 -43
-5z"/>
<path d="M390 320 c0 -5 5 -10 11 -10 5 0 7 5 4 10 -3 6 -8 10 -11 10 -2 0 -4
-4 -4 -10z"/>
<path d="M487 223 c-5 -8 9 -53 16 -53 2 0 2 14 -1 30 -4 31 -8 36 -15 23z"/>
<path d="M514 209 c-5 -9 -3 -10 17 -13 6 0 16 -9 23 -18 12 -16 26 -15 26 3
0 13 -59 38 -66 28z"/>
<path d="M601 104 c0 -11 3 -14 6 -6 3 7 2 16 -1 19 -3 4 -6 -2 -5 -13z"/>
</g>
</svg>
